<?xml version="1.0" encoding="utf-8"?>
<!-- Generator: Adobe Illustrator 21.0.0, SVG Export Plug-In . SVG Version: 6.00 Build 0)  -->
<svg version="1.1" id="Layer_1" xmlns="http://www.w3.org/2000/svg" xmlns:xlink="http://www.w3.org/1999/xlink" x="0px" y="0px"
	 viewBox="0 0 30 30" style="enable-background:new 0 0 30 30;" xml:space="preserve">
<style type="text/css">
	.st0{fill:#FFA744;}
	.st1{fill:#DFCDF7;}
	.st2{fill:#491E8C;}
</style>
<g>
	<g>
		<g>
			<circle class="st0" cx="8.1" cy="8.9" r="1.2"/>
		</g>
		<g>
			<circle class="st0" cx="18.2" cy="3.4" r="2"/>
		</g>
		<g>
			<circle class="st0" cx="18.9" cy="10.5" r="1.5"/>
		</g>
		<g>
			<circle class="st0" cx="16.2" cy="13.4" r="1.2"/>
		</g>
		<circle class="st1" cx="22" cy="5.4" r="0.8"/>
		<circle class="st1" cx="10.2" cy="10.9" r="0.6"/>
		<rect x="12.6" y="6.2" class="st1" width="3.4" height="3.4"/>
		<rect x="12.1" y="11.9" class="st1" width="2.1" height="2.1"/>
		<rect x="21.5" y="1" transform="matrix(0.7071 0.7071 -0.7071 0.7071 7.9097 -15.2816)" class="st1" width="1.9" height="1.9"/>
		<rect x="9.3" y="5.4" class="st1" width="1.6" height="1.6"/>
		<polygon class="st1" points="10.1,1.7 8.2,3.5 6.4,1.7 		"/>
		<polygon class="st1" points="18.5,7.4 20.3,6.7 20.9,8.4 		"/>
		<polygon class="st1" points="11.7,5 11.7,0 16.6,0 		"/>
	</g>
	<g>
		<path class="st2" d="M23.2,14.2L17,20.4v8.8c0,0.7-0.7,1-1.3,0.7L13.1,28c-0.2-0.2-0.3-0.4-0.3-0.7v-6.9l-6.2-6.2
			c-0.5-0.5-0.1-1.4,0.6-1.4h15.6C23.4,12.8,23.7,13.7,23.2,14.2z"/>
	</g>
</g>
</svg>
