<?xml version="1.0" encoding="utf-8"?>
<!-- Generator: Adobe Illustrator 21.0.0, SVG Export Plug-In . SVG Version: 6.00 Build 0)  -->
<svg version="1.1" id="Layer_1" xmlns="http://www.w3.org/2000/svg" xmlns:xlink="http://www.w3.org/1999/xlink" x="0px" y="0px"
	 viewBox="0 0 30 30" style="enable-background:new 0 0 30 30;" xml:space="preserve">
<style type="text/css">
	.st0{fill:#DFCDF7;}
	.st1{fill:#491E8C;}
	.st2{fill:#FFA744;}
</style>
<g>
	<circle class="st0" cx="15" cy="15" r="9.7"/>
	<g>
		<path class="st1" d="M21.4,17c-0.3,1-0.8,1.8-1.5,2.6c-0.1,0.1-0.3,0.1-0.4,0.1L18.4,19c-0.5,0.4-1,0.7-1.7,1v1.3
			c0,0.2-0.1,0.3-0.3,0.3c-0.9,0.2-2,0.2-3,0c-0.1,0-0.3-0.2-0.3-0.3v-1.3c-0.6-0.2-1.2-0.5-1.7-1l-1.2,0.7c-0.1,0.1-0.3,0-0.4-0.1
			C9.4,18.8,8.9,18,8.6,17c0-0.1,0-0.3,0.1-0.4L9.9,16c-0.1-0.6-0.1-1.3,0-1.9l-1.2-0.7c-0.1-0.1-0.2-0.2-0.1-0.4
			c0.3-1,0.8-1.8,1.5-2.6c0.1-0.1,0.3-0.1,0.4-0.1l1.2,0.7c0.5-0.4,1-0.7,1.7-1V8.7c0-0.2,0.1-0.3,0.3-0.3c0.9-0.2,2-0.2,3,0
			c0.1,0,0.3,0.2,0.3,0.3v1.3c0.6,0.2,1.2,0.5,1.7,1l1.2-0.7c0.1-0.1,0.3,0,0.4,0.1c0.7,0.7,1.2,1.6,1.5,2.6c0,0.1,0,0.3-0.1,0.4
			L20.1,14c0.1,0.6,0.1,1.3,0,1.9l1.2,0.7C21.4,16.7,21.5,16.9,21.4,17z M17.2,15c0-1.2-1-2.2-2.2-2.2s-2.2,1-2.2,2.2
			c0,1.2,1,2.2,2.2,2.2S17.2,16.2,17.2,15z"/>
	</g>
</g>
<g>
	<g>
		<path class="st2" d="M26,22.6c-0.1,0-0.1,0-0.2-0.1c-0.2-0.1-0.2-0.3-0.1-0.5c1.4-2.1,2.1-4.6,2.1-7.1c0-7.1-5.7-12.8-12.8-12.8
			c-2.3,0-4.5,0.6-6.4,1.7C8.4,4,8.2,3.9,8.1,3.8C8,3.6,8,3.4,8.2,3.3c2.1-1.2,4.4-1.8,6.8-1.8c7.4,0,13.5,6.1,13.5,13.6
			c0,2.7-0.8,5.3-2.2,7.5C26.2,22.6,26.1,22.6,26,22.6z"/>
		<g>
			<polygon class="st2" points="9.1,0 9.8,0.2 8.7,3.5 12,4.4 11.8,5.1 7.7,4 			"/>
		</g>
	</g>
	<g>
		<path class="st2" d="M15,28.6C7.6,28.6,1.5,22.5,1.5,15c0-2.7,0.8-5.3,2.2-7.5c0.1-0.2,0.3-0.2,0.5-0.1c0.2,0.1,0.2,0.3,0.1,0.5
			C2.9,10,2.2,12.5,2.2,15c0,7.1,5.7,12.8,12.8,12.8c2.3,0,4.5-0.6,6.4-1.7c0.2-0.1,0.4,0,0.5,0.1c0.1,0.2,0,0.4-0.1,0.5
			C19.7,27.9,17.4,28.6,15,28.6z"/>
		<g>
			<polygon class="st2" points="20.9,30 20.2,29.8 21.3,26.5 18,25.6 18.2,24.9 22.3,26 			"/>
		</g>
	</g>
</g>
</svg>
