<?xml version="1.0" encoding="utf-8"?>
<!-- Generator: Adobe Illustrator 21.0.0, SVG Export Plug-In . SVG Version: 6.00 Build 0)  -->
<svg version="1.1" id="Layer_1" xmlns="http://www.w3.org/2000/svg" xmlns:xlink="http://www.w3.org/1999/xlink" x="0px" y="0px"
	 viewBox="0 0 30 30" style="enable-background:new 0 0 30 30;" xml:space="preserve">
<style type="text/css">
	.st0{opacity:0.2;}
	.st1{fill:#FFA744;}
	.st2{opacity:0.4;}
	.st3{fill:#491E8C;}
	.st4{fill:#DFCDF7;}
</style>
<g>
	<g class="st0">
		<circle class="st1" cx="13.5" cy="8.8" r="8.8"/>
	</g>
	<g class="st2">
		<circle class="st1" cx="13.5" cy="8.8" r="5.9"/>
	</g>
	<g>
		<circle class="st1" cx="13.5" cy="8.8" r="2.9"/>
	</g>
	<g>
		<path class="st3" d="M25.3,20.5c0,0.1,0,0.2,0,0.4L24,26.1c-0.2,0.7-0.8,1.2-1.5,1.2h-8c-0.4,0-1-0.3-1.2-0.6l-4.9-6.8
			c-0.5-0.7-0.4-1.7,0.3-2.2c0.7-0.5,1.7-0.3,2.2,0.3l1.2,1.7V9.1c0-0.9,0.7-1.5,1.5-1.5c0.9,0,1.5,0.7,1.5,1.5v7.7h0.3v-1.5
			c0-0.9,0.7-1.5,1.5-1.5c0.9,0,1.5,0.7,1.5,1.5v1.5h0.3v-0.9c0-0.9,0.7-1.5,1.5-1.5c0.9,0,1.5,0.7,1.5,1.5v0.9h0.3
			c0-0.9,0.7-1.5,1.5-1.5s1.5,0.7,1.5,1.5V20.5z"/>
	</g>
	<path class="st4" d="M23.8,30H13.2c-0.2,0-0.3-0.1-0.3-0.3v-2.4c0-0.2,0.1-0.3,0.3-0.3h10.6c0.2,0,0.3,0.1,0.3,0.3v2.4
		C24.1,29.9,24,30,23.8,30z"/>
</g>
</svg>
